# xmcd
#
# Track frame offsets:
# 150
# 19075
# 41850
# 62430
# 80542
# 104845
# 126262
# 149635
# 170092
# 190172
#
# Disc length: 2830 seconds
#
#
# Revision: 0
# Processed by: cddbd v1.5.2PL0 Copyright (c) Steve Scherf et al.
# Submitted via: Nero 7, 11, 10, 0 
#
DISCID=950b0c0a
DTITLE=Rufus Thomas - Swing Out With
DYEAR=1999
DGENRE=Blues
TTITLE0=Rocket '88
TTITLE1=Fool For You Mama
TTITLE2=Do Me Again
TTITLE3=Keep That Music Simple
TTITLE4=Just Because I Leave, That Don't Mean I'm Gone
TTITLE5=I Like To Boogie
TTITLE6=New Kinda Love
TTITLE7=No More Doggin'
TTITLE8=Put My Money Down
TTITLE9=Age Ain't Nothin' But A Number
EXTD=
EXTT0=Rocket '88
EXTT1=Fool For You Mama
EXTT2=Do Me Again
EXTT3=Keep That Music Simple
EXTT4=Just Because I Leave, That Don't Mean I'm Gone
EXTT5=I Like To Boogie
EXTT6=New Kinda Love
EXTT7=No More Doggin'
EXTT8=Put My Money Down
EXTT9=Age Ain't Nothin' But A Number
PLAYORDER=
